<?xml version="1.0" encoding="utf-8" standalone="no"?>
<!DOCTYPE svg PUBLIC "-//W3C//DTD SVG 1.1//EN"
  "http://www.w3.org/Graphics/SVG/1.1/DTD/svg11.dtd">
<svg xmlns:xlink="http://www.w3.org/1999/xlink" width="488.590625pt" height="515.561281pt" viewBox="0 0 488.590625 515.561281" xmlns="http://www.w3.org/2000/svg" version="1.1">
 <metadata>
  <rdf:RDF xmlns:dc="http://purl.org/dc/elements/1.1/" xmlns:cc="http://creativecommons.org/ns#" xmlns:rdf="http://www.w3.org/1999/02/22-rdf-syntax-ns#">
   <cc:Work>
    <dc:type rdf:resource="http://purl.org/dc/dcmitype/StillImage"/>
    <dc:format>image/svg+xml</dc:format>
    <dc:creator>
     <cc:Agent>
      <dc:title>Matplotlib v3.11.1, https://matplotlib.org/</dc:title>
     </cc:Agent>
    </dc:creator>
   </cc:Work>
  </rdf:RDF>
 </metadata>
 <defs>
  <style type="text/css">*{stroke-linejoin: round; stroke-linecap: butt}</style>
 </defs>
 <g id="figure_1">
  <g id="patch_1">
   <path d="M 0 515.561281 
L 488.590625 515.561281 
L 488.590625 0 
L 0 0 
z
" style="fill: #ffffff"/>
  </g>
  <g id="axes_1">
   <g id="patch_2">
    <path d="M 34.990625 476.926125 
L 481.390625 476.926125 
L 481.390625 22.318125 
L 34.990625 22.318125 
z
" style="fill: #ffffff"/>
   </g>
   <g id="matplotlib.axis_1">
    <g id="xtick_1">
     <g id="line2d_1">
      <path d="M 34.990625 476.926125 
L 34.990625 22.318125 
" clip-path="url(#pa48ac6536c)" style="fill: none; stroke: #b0b0b0; stroke-opacity: 0.3; stroke-width: 0.6; stroke-linecap: square"/>
     </g>
     <g id="line2d_2">
      <defs>
       <path id="m97186c5697" d="M 0 0 
L 0 3.5 
" style="stroke: #000000; stroke-width: 0.8"/>
      </defs>
      <g>
       <use xlink:href="#m97186c5697" x="34.990625" y="476.926125" style="stroke: #000000; stroke-width: 0.8"/>
      </g>
     </g>
     <g id="text_1">
      <text style="font-size: 10px; font-family: 'DejaVu Sans', 'Bitstream Vera Sans', 'Computer Modern Sans Serif', 'Lucida Grande', 'Verdana', 'Geneva', 'Lucid', 'Arial', 'Helvetica', 'Avant Garde', sans-serif; text-anchor: middle" x="34.990625" y="491.523781" transform="rotate(-0 34.990625 491.523781)">0.000</text>
     </g>
    </g>
    <g id="xtick_2">
     <g id="line2d_3">
      <path d="M 115.959826 476.926125 
L 115.959826 22.318125 
" clip-path="url(#pa48ac6536c)" style="fill: none; stroke: #b0b0b0; stroke-opacity: 0.3; stroke-width: 0.6; stroke-linecap: square"/>
     </g>
     <g id="line2d_4">
      <g>
       <use xlink:href="#m97186c5697" x="115.959826" y="476.926125" style="stroke: #000000; stroke-width: 0.8"/>
      </g>
     </g>
     <g id="text_2">
      <text style="font-size: 10px; font-family: 'DejaVu Sans', 'Bitstream Vera Sans', 'Computer Modern Sans Serif', 'Lucida Grande', 'Verdana', 'Geneva', 'Lucid', 'Arial', 'Helvetica', 'Avant Garde', sans-serif; text-anchor: middle" x="115.959826" y="491.523781" transform="rotate(-0 115.959826 491.523781)">0.005</text>
     </g>
    </g>
    <g id="xtick_3">
     <g id="line2d_5">
      <path d="M 196.929027 476.926125 
L 196.929027 22.318125 
" clip-path="url(#pa48ac6536c)" style="fill: none; stroke: #b0b0b0; stroke-opacity: 0.3; stroke-width: 0.6; stroke-linecap: square"/>
     </g>
     <g id="line2d_6">
      <g>
       <use xlink:href="#m97186c5697" x="196.929027" y="476.926125" style="stroke: #000000; stroke-width: 0.8"/>
      </g>
     </g>
     <g id="text_3">
      <text style="font-size: 10px; font-family: 'DejaVu Sans', 'Bitstream Vera Sans', 'Computer Modern Sans Serif', 'Lucida Grande', 'Verdana', 'Geneva', 'Lucid', 'Arial', 'Helvetica', 'Avant Garde', sans-serif; text-anchor: middle" x="196.929027" y="491.523781" transform="rotate(-0 196.929027 491.523781)">0.010</text>
     </g>
    </g>
    <g id="xtick_4">
     <g id="line2d_7">
      <path d="M 277.898228 476.926125 
L 277.898228 22.318125 
" clip-path="url(#pa48ac6536c)" style="fill: none; stroke: #b0b0b0; stroke-opacity: 0.3; stroke-width: 0.6; stroke-linecap: square"/>
     </g>
     <g id="line2d_8">
      <g>
       <use xlink:href="#m97186c5697" x="277.898228" y="476.926125" style="stroke: #000000; stroke-width: 0.8"/>
      </g>
     </g>
     <g id="text_4">
      <text style="font-size: 10px; font-family: 'DejaVu Sans', 'Bitstream Vera Sans', 'Computer Modern Sans Serif', 'Lucida Grande', 'Verdana', 'Geneva', 'Lucid', 'Arial', 'Helvetica', 'Avant Garde', sans-serif; text-anchor: middle" x="277.898228" y="491.523781" transform="rotate(-0 277.898228 491.523781)">0.015</text>
     </g>
    </g>
    <g id="xtick_5">
     <g id="line2d_9">
      <path d="M 358.867429 476.926125 
L 358.867429 22.318125 
" clip-path="url(#pa48ac6536c)" style="fill: none; stroke: #b0b0b0; stroke-opacity: 0.3; stroke-width: 0.6; stroke-linecap: square"/>
     </g>
     <g id="line2d_10">
      <g>
       <use xlink:href="#m97186c5697" x="358.867429" y="476.926125" style="stroke: #000000; stroke-width: 0.8"/>
      </g>
     </g>
     <g id="text_5">
      <text style="font-size: 10px; font-family: 'DejaVu Sans', 'Bitstream Vera Sans', 'Computer Modern Sans Serif', 'Lucida Grande', 'Verdana', 'Geneva', 'Lucid', 'Arial', 'Helvetica', 'Avant Garde', sans-serif; text-anchor: middle" x="358.867429" y="491.523781" transform="rotate(-0 358.867429 491.523781)">0.020</text>
     </g>
    </g>
    <g id="xtick_6">
     <g id="line2d_11">
      <path d="M 439.836629 476.926125 
L 439.836629 22.318125 
" clip-path="url(#pa48ac6536c)" style="fill: none; stroke: #b0b0b0; stroke-opacity: 0.3; stroke-width: 0.6; stroke-linecap: square"/>
     </g>
     <g id="line2d_12">
      <g>
       <use xlink:href="#m97186c5697" x="439.836629" y="476.926125" style="stroke: #000000; stroke-width: 0.8"/>
      </g>
     </g>
     <g id="text_6">
      <text style="font-size: 10px; font-family: 'DejaVu Sans', 'Bitstream Vera Sans', 'Computer Modern Sans Serif', 'Lucida Grande', 'Verdana', 'Geneva', 'Lucid', 'Arial', 'Helvetica', 'Avant Garde', sans-serif; text-anchor: middle" x="439.836629" y="491.523781" transform="rotate(-0 439.836629 491.523781)">0.025</text>
     </g>
    </g>
    <g id="text_7">
     <text style="font-size: 10px; font-family: 'DejaVu Sans', 'Bitstream Vera Sans', 'Computer Modern Sans Serif', 'Lucida Grande', 'Verdana', 'Geneva', 'Lucid', 'Arial', 'Helvetica', 'Avant Garde', sans-serif; text-anchor: middle" x="258.190625" y="505.958938" transform="rotate(-0 258.190625 505.958938)">średni TF-IDF</text>
    </g>
   </g>
   <g id="matplotlib.axis_2">
    <g id="ytick_1">
     <g id="line2d_13">
      <path d="M 34.990625 51.730996 
L 481.390625 51.730996 
" clip-path="url(#pa48ac6536c)" style="fill: none; stroke: #b0b0b0; stroke-opacity: 0.3; stroke-width: 0.6; stroke-linecap: square"/>
     </g>
     <g id="line2d_14">
      <defs>
       <path id="mb89c957e19" d="M 0 0 
L -3.5 0 
" style="stroke: #000000; stroke-width: 0.8"/>
      </defs>
      <g>
       <use xlink:href="#mb89c957e19" x="34.990625" y="51.730996" style="stroke: #000000; stroke-width: 0.8"/>
      </g>
     </g>
     <g id="text_8">
      <text style="font-size: 10px; font-family: 'DejaVu Sans'; text-anchor: end" x="27.990625" y="55.530215" transform="rotate(-0 27.990625 55.530215)"> ال</text>
     </g>
    </g>
    <g id="ytick_2">
     <g id="line2d_15">
      <path d="M 34.990625 72.561641 
L 481.390625 72.561641 
" clip-path="url(#pa48ac6536c)" style="fill: none; stroke: #b0b0b0; stroke-opacity: 0.3; stroke-width: 0.6; stroke-linecap: square"/>
     </g>
     <g id="line2d_16">
      <g>
       <use xlink:href="#mb89c957e19" x="34.990625" y="72.561641" style="stroke: #000000; stroke-width: 0.8"/>
      </g>
     </g>
     <g id="text_9">
      <text style="font-size: 10px; font-family: 'DejaVu Sans'; text-anchor: end" x="27.990625" y="76.36086" transform="rotate(-0 27.990625 76.36086)">ان </text>
     </g>
    </g>
    <g id="ytick_3">
     <g id="line2d_17">
      <path d="M 34.990625 93.392286 
L 481.390625 93.392286 
" clip-path="url(#pa48ac6536c)" style="fill: none; stroke: #b0b0b0; stroke-opacity: 0.3; stroke-width: 0.6; stroke-linecap: square"/>
     </g>
     <g id="line2d_18">
      <g>
       <use xlink:href="#mb89c957e19" x="34.990625" y="93.392286" style="stroke: #000000; stroke-width: 0.8"/>
      </g>
     </g>
     <g id="text_10">
      <text style="font-size: 10px; font-family: 'DejaVu Sans'; text-anchor: end" x="27.990625" y="97.191505" transform="rotate(-0 27.990625 97.191505)"> وا</text>
     </g>
    </g>
    <g id="ytick_4">
     <g id="line2d_19">
      <path d="M 34.990625 114.222931 
L 481.390625 114.222931 
" clip-path="url(#pa48ac6536c)" style="fill: none; stroke: #b0b0b0; stroke-opacity: 0.3; stroke-width: 0.6; stroke-linecap: square"/>
     </g>
     <g id="line2d_20">
      <g>
       <use xlink:href="#mb89c957e19" x="34.990625" y="114.222931" style="stroke: #000000; stroke-width: 0.8"/>
      </g>
     </g>
     <g id="text_11">
      <text style="font-size: 10px; font-family: 'DejaVu Sans'; text-anchor: end" x="27.990625" y="118.02215" transform="rotate(-0 27.990625 118.02215)">لي </text>
     </g>
    </g>
    <g id="ytick_5">
     <g id="line2d_21">
      <path d="M 34.990625 135.053577 
L 481.390625 135.053577 
" clip-path="url(#pa48ac6536c)" style="fill: none; stroke: #b0b0b0; stroke-opacity: 0.3; stroke-width: 0.6; stroke-linecap: square"/>
     </g>
     <g id="line2d_22">
      <g>
       <use xlink:href="#mb89c957e19" x="34.990625" y="135.053577" style="stroke: #000000; stroke-width: 0.8"/>
      </g>
     </g>
     <g id="text_12">
      <text style="font-size: 10px; font-family: 'DejaVu Sans'; text-anchor: end" x="27.990625" y="138.852795" transform="rotate(-0 27.990625 138.852795)">له </text>
     </g>
    </g>
    <g id="ytick_6">
     <g id="line2d_23">
      <path d="M 34.990625 155.884222 
L 481.390625 155.884222 
" clip-path="url(#pa48ac6536c)" style="fill: none; stroke: #b0b0b0; stroke-opacity: 0.3; stroke-width: 0.6; stroke-linecap: square"/>
     </g>
     <g id="line2d_24">
      <g>
       <use xlink:href="#mb89c957e19" x="34.990625" y="155.884222" style="stroke: #000000; stroke-width: 0.8"/>
      </g>
     </g>
     <g id="text_13">
      <text style="font-size: 10px; font-family: 'DejaVu Sans'; text-anchor: end" x="27.990625" y="159.68305" transform="rotate(-0 27.990625 159.68305)"> من</text>
     </g>
    </g>
    <g id="ytick_7">
     <g id="line2d_25">
      <path d="M 34.990625 176.714867 
L 481.390625 176.714867 
" clip-path="url(#pa48ac6536c)" style="fill: none; stroke: #b0b0b0; stroke-opacity: 0.3; stroke-width: 0.6; stroke-linecap: square"/>
     </g>
     <g id="line2d_26">
      <g>
       <use xlink:href="#mb89c957e19" x="34.990625" y="176.714867" style="stroke: #000000; stroke-width: 0.8"/>
      </g>
     </g>
     <g id="text_14">
      <text style="font-size: 10px; font-family: 'DejaVu Sans'; text-anchor: end" x="27.990625" y="180.513695" transform="rotate(-0 27.990625 180.513695)"> في</text>
     </g>
    </g>
    <g id="ytick_8">
     <g id="line2d_27">
      <path d="M 34.990625 197.545512 
L 481.390625 197.545512 
" clip-path="url(#pa48ac6536c)" style="fill: none; stroke: #b0b0b0; stroke-opacity: 0.3; stroke-width: 0.6; stroke-linecap: square"/>
     </g>
     <g id="line2d_28">
      <g>
       <use xlink:href="#mb89c957e19" x="34.990625" y="197.545512" style="stroke: #000000; stroke-width: 0.8"/>
      </g>
     </g>
     <g id="text_15">
      <text style="font-size: 10px; font-family: 'DejaVu Sans'; text-anchor: end" x="27.990625" y="201.34434" transform="rotate(-0 27.990625 201.34434)">من </text>
     </g>
    </g>
    <g id="ytick_9">
     <g id="line2d_29">
      <path d="M 34.990625 218.376157 
L 481.390625 218.376157 
" clip-path="url(#pa48ac6536c)" style="fill: none; stroke: #b0b0b0; stroke-opacity: 0.3; stroke-width: 0.6; stroke-linecap: square"/>
     </g>
     <g id="line2d_30">
      <g>
       <use xlink:href="#mb89c957e19" x="34.990625" y="218.376157" style="stroke: #000000; stroke-width: 0.8"/>
      </g>
     </g>
     <g id="text_16">
      <text style="font-size: 10px; font-family: 'DejaVu Sans'; text-anchor: end" x="27.990625" y="222.175376" transform="rotate(-0 27.990625 222.175376)">علي</text>
     </g>
    </g>
    <g id="ytick_10">
     <g id="line2d_31">
      <path d="M 34.990625 239.206802 
L 481.390625 239.206802 
" clip-path="url(#pa48ac6536c)" style="fill: none; stroke: #b0b0b0; stroke-opacity: 0.3; stroke-width: 0.6; stroke-linecap: square"/>
     </g>
     <g id="line2d_32">
      <g>
       <use xlink:href="#mb89c957e19" x="34.990625" y="239.206802" style="stroke: #000000; stroke-width: 0.8"/>
      </g>
     </g>
     <g id="text_17">
      <text style="font-size: 10px; font-family: 'DejaVu Sans'; text-anchor: end" x="27.990625" y="243.006021" transform="rotate(-0 27.990625 243.006021)">ال </text>
     </g>
    </g>
    <g id="ytick_11">
     <g id="line2d_33">
      <path d="M 34.990625 260.037448 
L 481.390625 260.037448 
" clip-path="url(#pa48ac6536c)" style="fill: none; stroke: #b0b0b0; stroke-opacity: 0.3; stroke-width: 0.6; stroke-linecap: square"/>
     </g>
     <g id="line2d_34">
      <g>
       <use xlink:href="#mb89c957e19" x="34.990625" y="260.037448" style="stroke: #000000; stroke-width: 0.8"/>
      </g>
     </g>
     <g id="text_18">
      <text style="font-size: 10px; font-family: 'DejaVu Sans'; text-anchor: end" x="27.990625" y="263.836666" transform="rotate(-0 27.990625 263.836666)"> عل</text>
     </g>
    </g>
    <g id="ytick_12">
     <g id="line2d_35">
      <path d="M 34.990625 280.868093 
L 481.390625 280.868093 
" clip-path="url(#pa48ac6536c)" style="fill: none; stroke: #b0b0b0; stroke-opacity: 0.3; stroke-width: 0.6; stroke-linecap: square"/>
     </g>
     <g id="line2d_36">
      <g>
       <use xlink:href="#mb89c957e19" x="34.990625" y="280.868093" style="stroke: #000000; stroke-width: 0.8"/>
      </g>
     </g>
     <g id="text_19">
      <text style="font-size: 10px; font-family: 'DejaVu Sans'; text-anchor: end" x="27.990625" y="284.667311" transform="rotate(-0 27.990625 284.667311)">ما </text>
     </g>
    </g>
    <g id="ytick_13">
     <g id="line2d_37">
      <path d="M 34.990625 301.698738 
L 481.390625 301.698738 
" clip-path="url(#pa48ac6536c)" style="fill: none; stroke: #b0b0b0; stroke-opacity: 0.3; stroke-width: 0.6; stroke-linecap: square"/>
     </g>
     <g id="line2d_38">
      <g>
       <use xlink:href="#mb89c957e19" x="34.990625" y="301.698738" style="stroke: #000000; stroke-width: 0.8"/>
      </g>
     </g>
     <g id="text_20">
      <text style="font-size: 10px; font-family: 'DejaVu Sans'; text-anchor: end" x="27.990625" y="305.497566" transform="rotate(-0 27.990625 305.497566)">في </text>
     </g>
    </g>
    <g id="ytick_14">
     <g id="line2d_39">
      <path d="M 34.990625 322.529383 
L 481.390625 322.529383 
" clip-path="url(#pa48ac6536c)" style="fill: none; stroke: #b0b0b0; stroke-opacity: 0.3; stroke-width: 0.6; stroke-linecap: square"/>
     </g>
     <g id="line2d_40">
      <g>
       <use xlink:href="#mb89c957e19" x="34.990625" y="322.529383" style="stroke: #000000; stroke-width: 0.8"/>
      </g>
     </g>
     <g id="text_21">
      <text style="font-size: 10px; font-family: 'DejaVu Sans'; text-anchor: end" x="27.990625" y="326.328602" transform="rotate(-0 27.990625 326.328602)">الا</text>
     </g>
    </g>
    <g id="ytick_15">
     <g id="line2d_41">
      <path d="M 34.990625 343.360028 
L 481.390625 343.360028 
" clip-path="url(#pa48ac6536c)" style="fill: none; stroke: #b0b0b0; stroke-opacity: 0.3; stroke-width: 0.6; stroke-linecap: square"/>
     </g>
     <g id="line2d_42">
      <g>
       <use xlink:href="#mb89c957e19" x="34.990625" y="343.360028" style="stroke: #000000; stroke-width: 0.8"/>
      </g>
     </g>
     <g id="text_22">
      <text style="font-size: 10px; font-family: 'DejaVu Sans'; text-anchor: end" x="27.990625" y="347.159247" transform="rotate(-0 27.990625 347.159247)"> علي</text>
     </g>
    </g>
    <g id="ytick_16">
     <g id="line2d_43">
      <path d="M 34.990625 364.190673 
L 481.390625 364.190673 
" clip-path="url(#pa48ac6536c)" style="fill: none; stroke: #b0b0b0; stroke-opacity: 0.3; stroke-width: 0.6; stroke-linecap: square"/>
     </g>
     <g id="line2d_44">
      <g>
       <use xlink:href="#mb89c957e19" x="34.990625" y="364.190673" style="stroke: #000000; stroke-width: 0.8"/>
      </g>
     </g>
     <g id="text_23">
      <text style="font-size: 10px; font-family: 'DejaVu Sans'; text-anchor: end" x="27.990625" y="367.989892" transform="rotate(-0 27.990625 367.989892)"> ان</text>
     </g>
    </g>
    <g id="ytick_17">
     <g id="line2d_45">
      <path d="M 34.990625 385.021319 
L 481.390625 385.021319 
" clip-path="url(#pa48ac6536c)" style="fill: none; stroke: #b0b0b0; stroke-opacity: 0.3; stroke-width: 0.6; stroke-linecap: square"/>
     </g>
     <g id="line2d_46">
      <g>
       <use xlink:href="#mb89c957e19" x="34.990625" y="385.021319" style="stroke: #000000; stroke-width: 0.8"/>
      </g>
     </g>
     <g id="text_24">
      <text style="font-size: 10px; font-family: 'DejaVu Sans'; text-anchor: end" x="27.990625" y="388.820537" transform="rotate(-0 27.990625 388.820537)">الم</text>
     </g>
    </g>
    <g id="ytick_18">
     <g id="line2d_47">
      <path d="M 34.990625 405.851964 
L 481.390625 405.851964 
" clip-path="url(#pa48ac6536c)" style="fill: none; stroke: #b0b0b0; stroke-opacity: 0.3; stroke-width: 0.6; stroke-linecap: square"/>
     </g>
     <g id="line2d_48">
      <g>
       <use xlink:href="#mb89c957e19" x="34.990625" y="405.851964" style="stroke: #000000; stroke-width: 0.8"/>
      </g>
     </g>
     <g id="text_25">
      <text style="font-size: 10px; font-family: 'DejaVu Sans'; text-anchor: end" x="27.990625" y="409.650792" transform="rotate(-0 27.990625 409.650792)"> من </text>
     </g>
    </g>
    <g id="ytick_19">
     <g id="line2d_49">
      <path d="M 34.990625 426.682609 
L 481.390625 426.682609 
" clip-path="url(#pa48ac6536c)" style="fill: none; stroke: #b0b0b0; stroke-opacity: 0.3; stroke-width: 0.6; stroke-linecap: square"/>
     </g>
     <g id="line2d_50">
      <g>
       <use xlink:href="#mb89c957e19" x="34.990625" y="426.682609" style="stroke: #000000; stroke-width: 0.8"/>
      </g>
     </g>
     <g id="text_26">
      <text style="font-size: 10px; font-family: 'DejaVu Sans'; text-anchor: end" x="27.990625" y="430.481437" transform="rotate(-0 27.990625 430.481437)">يه </text>
     </g>
    </g>
    <g id="ytick_20">
     <g id="line2d_51">
      <path d="M 34.990625 447.513254 
L 481.390625 447.513254 
" clip-path="url(#pa48ac6536c)" style="fill: none; stroke: #b0b0b0; stroke-opacity: 0.3; stroke-width: 0.6; stroke-linecap: square"/>
     </g>
     <g id="line2d_52">
      <g>
       <use xlink:href="#mb89c957e19" x="34.990625" y="447.513254" style="stroke: #000000; stroke-width: 0.8"/>
      </g>
     </g>
     <g id="text_27">
      <text style="font-size: 10px; font-family: 'DejaVu Sans'; text-anchor: end" x="27.990625" y="451.312473" transform="rotate(-0 27.990625 451.312473)">قال</text>
     </g>
    </g>
   </g>
   <g id="patch_3">
    <path d="M 34.990625 54.647286 
L 460.133482 54.647286 
L 460.133482 60.479867 
L 34.990625 60.479867 
z
" clip-path="url(#pa48ac6536c)" style="fill: #0072b2"/>
   </g>
   <g id="patch_4">
    <path d="M 34.990625 75.477931 
L 330.28334 75.477931 
L 330.28334 81.310512 
L 34.990625 81.310512 
z
" clip-path="url(#pa48ac6536c)" style="fill: #0072b2"/>
   </g>
   <g id="patch_5">
    <path d="M 34.990625 96.308577 
L 325.072455 96.308577 
L 325.072455 102.141157 
L 34.990625 102.141157 
z
" clip-path="url(#pa48ac6536c)" style="fill: #0072b2"/>
   </g>
   <g id="patch_6">
    <path d="M 34.990625 117.139222 
L 315.628469 117.139222 
L 315.628469 122.971802 
L 34.990625 122.971802 
z
" clip-path="url(#pa48ac6536c)" style="fill: #0072b2"/>
   </g>
   <g id="patch_7">
    <path d="M 34.990625 137.969867 
L 314.220039 137.969867 
L 314.220039 143.802448 
L 34.990625 143.802448 
z
" clip-path="url(#pa48ac6536c)" style="fill: #0072b2"/>
   </g>
   <g id="patch_8">
    <path d="M 34.990625 158.800512 
L 306.977177 158.800512 
L 306.977177 164.633093 
L 34.990625 164.633093 
z
" clip-path="url(#pa48ac6536c)" style="fill: #0072b2"/>
   </g>
   <g id="patch_9">
    <path d="M 34.990625 179.631157 
L 303.721098 179.631157 
L 303.721098 185.463738 
L 34.990625 185.463738 
z
" clip-path="url(#pa48ac6536c)" style="fill: #0072b2"/>
   </g>
   <g id="patch_10">
    <path d="M 34.990625 200.461802 
L 301.52333 200.461802 
L 301.52333 206.294383 
L 34.990625 206.294383 
z
" clip-path="url(#pa48ac6536c)" style="fill: #0072b2"/>
   </g>
   <g id="patch_11">
    <path d="M 34.990625 221.292448 
L 294.023343 221.292448 
L 294.023343 227.125028 
L 34.990625 227.125028 
z
" clip-path="url(#pa48ac6536c)" style="fill: #0072b2"/>
   </g>
   <g id="patch_12">
    <path d="M 34.990625 242.123093 
L 293.806382 242.123093 
L 293.806382 247.955673 
L 34.990625 247.955673 
z
" clip-path="url(#pa48ac6536c)" style="fill: #0072b2"/>
   </g>
   <g id="patch_13">
    <path d="M 34.990625 262.953738 
L 293.702882 262.953738 
L 293.702882 268.786319 
L 34.990625 268.786319 
z
" clip-path="url(#pa48ac6536c)" style="fill: #0072b2"/>
   </g>
   <g id="patch_14">
    <path d="M 34.990625 283.784383 
L 293.626159 283.784383 
L 293.626159 289.616964 
L 34.990625 289.616964 
z
" clip-path="url(#pa48ac6536c)" style="fill: #0072b2"/>
   </g>
   <g id="patch_15">
    <path d="M 34.990625 304.615028 
L 290.586898 304.615028 
L 290.586898 310.447609 
L 34.990625 310.447609 
z
" clip-path="url(#pa48ac6536c)" style="fill: #0072b2"/>
   </g>
   <g id="patch_16">
    <path d="M 34.990625 325.445673 
L 290.258612 325.445673 
L 290.258612 331.278254 
L 34.990625 331.278254 
z
" clip-path="url(#pa48ac6536c)" style="fill: #0072b2"/>
   </g>
   <g id="patch_17">
    <path d="M 34.990625 346.276319 
L 288.079092 346.276319 
L 288.079092 352.108899 
L 34.990625 352.108899 
z
" clip-path="url(#pa48ac6536c)" style="fill: #0072b2"/>
   </g>
   <g id="patch_18">
    <path d="M 34.990625 367.106964 
L 285.727584 367.106964 
L 285.727584 372.939544 
L 34.990625 372.939544 
z
" clip-path="url(#pa48ac6536c)" style="fill: #0072b2"/>
   </g>
   <g id="patch_19">
    <path d="M 34.990625 387.937609 
L 285.560257 387.937609 
L 285.560257 393.77019 
L 34.990625 393.77019 
z
" clip-path="url(#pa48ac6536c)" style="fill: #0072b2"/>
   </g>
   <g id="patch_20">
    <path d="M 34.990625 408.768254 
L 284.509998 408.768254 
L 284.509998 414.600835 
L 34.990625 414.600835 
z
" clip-path="url(#pa48ac6536c)" style="fill: #0072b2"/>
   </g>
   <g id="patch_21">
    <path d="M 34.990625 429.598899 
L 282.125232 429.598899 
L 282.125232 435.43148 
L 34.990625 435.43148 
z
" clip-path="url(#pa48ac6536c)" style="fill: #0072b2"/>
   </g>
   <g id="patch_22">
    <path d="M 34.990625 450.429544 
L 281.84599 450.429544 
L 281.84599 456.262125 
L 34.990625 456.262125 
z
" clip-path="url(#pa48ac6536c)" style="fill: #0072b2"/>
   </g>
   <g id="patch_23">
    <path d="M 34.990625 48.814706 
L 459.422209 48.814706 
L 459.422209 54.647286 
L 34.990625 54.647286 
z
" clip-path="url(#pa48ac6536c)"/>
   </g>
   <g id="patch_24">
    <path d="M 34.990625 69.645351 
L 332.912251 69.645351 
L 332.912251 75.477931 
L 34.990625 75.477931 
z
" clip-path="url(#pa48ac6536c)"/>
   </g>
   <g id="patch_25">
    <path d="M 34.990625 90.475996 
L 325.938562 90.475996 
L 325.938562 96.308577 
L 34.990625 96.308577 
z
" clip-path="url(#pa48ac6536c)"/>
   </g>
   <g id="patch_26">
    <path d="M 34.990625 111.306641 
L 317.270085 111.306641 
L 317.270085 117.139222 
L 34.990625 117.139222 
z
" clip-path="url(#pa48ac6536c)"/>
   </g>
   <g id="patch_27">
    <path d="M 34.990625 132.137286 
L 319.763299 132.137286 
L 319.763299 137.969867 
L 34.990625 137.969867 
z
" clip-path="url(#pa48ac6536c)"/>
   </g>
   <g id="patch_28">
    <path d="M 34.990625 152.967931 
L 308.336312 152.967931 
L 308.336312 158.800512 
L 34.990625 158.800512 
z
" clip-path="url(#pa48ac6536c)"/>
   </g>
   <g id="patch_29">
    <path d="M 34.990625 173.798577 
L 308.522345 173.798577 
L 308.522345 179.631157 
L 34.990625 179.631157 
z
" clip-path="url(#pa48ac6536c)"/>
   </g>
   <g id="patch_30">
    <path d="M 34.990625 194.629222 
L 300.430646 194.629222 
L 300.430646 200.461802 
L 34.990625 200.461802 
z
" clip-path="url(#pa48ac6536c)"/>
   </g>
   <g id="patch_31">
    <path d="M 34.990625 215.459867 
L 295.71577 215.459867 
L 295.71577 221.292448 
L 34.990625 221.292448 
z
" clip-path="url(#pa48ac6536c)"/>
   </g>
   <g id="patch_32">
    <path d="M 34.990625 236.290512 
L 301.925433 236.290512 
L 301.925433 242.123093 
L 34.990625 242.123093 
z
" clip-path="url(#pa48ac6536c)"/>
   </g>
   <g id="patch_33">
    <path d="M 34.990625 257.121157 
L 295.716419 257.121157 
L 295.716419 262.953738 
L 34.990625 262.953738 
z
" clip-path="url(#pa48ac6536c)"/>
   </g>
   <g id="patch_34">
    <path d="M 34.990625 277.951802 
L 299.095544 277.951802 
L 299.095544 283.784383 
L 34.990625 283.784383 
z
" clip-path="url(#pa48ac6536c)"/>
   </g>
   <g id="patch_35">
    <path d="M 34.990625 298.782448 
L 294.384679 298.782448 
L 294.384679 304.615028 
L 34.990625 304.615028 
z
" clip-path="url(#pa48ac6536c)"/>
   </g>
   <g id="patch_36">
    <path d="M 34.990625 319.613093 
L 291.488636 319.613093 
L 291.488636 325.445673 
L 34.990625 325.445673 
z
" clip-path="url(#pa48ac6536c)"/>
   </g>
   <g id="patch_37">
    <path d="M 34.990625 340.443738 
L 290.410622 340.443738 
L 290.410622 346.276319 
L 34.990625 346.276319 
z
" clip-path="url(#pa48ac6536c)"/>
   </g>
   <g id="patch_38">
    <path d="M 34.990625 361.274383 
L 294.771765 361.274383 
L 294.771765 367.106964 
L 34.990625 367.106964 
z
" clip-path="url(#pa48ac6536c)"/>
   </g>
   <g id="patch_39">
    <path d="M 34.990625 382.105028 
L 282.742773 382.105028 
L 282.742773 387.937609 
L 34.990625 387.937609 
z
" clip-path="url(#pa48ac6536c)"/>
   </g>
   <g id="patch_40">
    <path d="M 34.990625 402.935673 
L 284.824862 402.935673 
L 284.824862 408.768254 
L 34.990625 408.768254 
z
" clip-path="url(#pa48ac6536c)"/>
   </g>
   <g id="patch_41">
    <path d="M 34.990625 423.766319 
L 286.412276 423.766319 
L 286.412276 429.598899 
L 34.990625 429.598899 
z
" clip-path="url(#pa48ac6536c)"/>
   </g>
   <g id="patch_42">
    <path d="M 34.990625 444.596964 
L 294.164516 444.596964 
L 294.164516 450.429544 
L 34.990625 450.429544 
z
" clip-path="url(#pa48ac6536c)"/>
   </g>
   <g id="patch_43">
    <path d="M 34.990625 42.982125 
L 453.670339 42.982125 
L 453.670339 48.814706 
L 34.990625 48.814706 
z
" clip-path="url(#pa48ac6536c)" style="fill: #d55e00"/>
   </g>
   <g id="patch_44">
    <path d="M 34.990625 63.81277 
L 321.089711 63.81277 
L 321.089711 69.645351 
L 34.990625 69.645351 
z
" clip-path="url(#pa48ac6536c)" style="fill: #d55e00"/>
   </g>
   <g id="patch_45">
    <path d="M 34.990625 84.643415 
L 341.407239 84.643415 
L 341.407239 90.475996 
L 34.990625 90.475996 
z
" clip-path="url(#pa48ac6536c)" style="fill: #d55e00"/>
   </g>
   <g id="patch_46">
    <path d="M 34.990625 105.47406 
L 269.559954 105.47406 
L 269.559954 111.306641 
L 34.990625 111.306641 
z
" clip-path="url(#pa48ac6536c)" style="fill: #d55e00"/>
   </g>
   <g id="patch_47">
    <path d="M 34.990625 126.304706 
L 332.871373 126.304706 
L 332.871373 132.137286 
L 34.990625 132.137286 
z
" clip-path="url(#pa48ac6536c)" style="fill: #d55e00"/>
   </g>
   <g id="patch_48">
    <path d="M 34.990625 147.135351 
L 341.11328 147.135351 
L 341.11328 152.967931 
L 34.990625 152.967931 
z
" clip-path="url(#pa48ac6536c)" style="fill: #d55e00"/>
   </g>
   <g id="patch_49">
    <path d="M 34.990625 167.965996 
L 285.987675 167.965996 
L 285.987675 173.798577 
L 34.990625 173.798577 
z
" clip-path="url(#pa48ac6536c)" style="fill: #d55e00"/>
   </g>
   <g id="patch_50">
    <path d="M 34.990625 188.796641 
L 348.125918 188.796641 
L 348.125918 194.629222 
L 34.990625 194.629222 
z
" clip-path="url(#pa48ac6536c)" style="fill: #d55e00"/>
   </g>
   <g id="patch_51">
    <path d="M 34.990625 209.627286 
L 279.324566 209.627286 
L 279.324566 215.459867 
L 34.990625 215.459867 
z
" clip-path="url(#pa48ac6536c)" style="fill: #d55e00"/>
   </g>
   <g id="patch_52">
    <path d="M 34.990625 230.457931 
L 172.291261 230.457931 
L 172.291261 236.290512 
L 34.990625 236.290512 
z
" clip-path="url(#pa48ac6536c)" style="fill: #d55e00"/>
   </g>
   <g id="patch_53">
    <path d="M 34.990625 251.288577 
L 278.932292 251.288577 
L 278.932292 257.121157 
L 34.990625 257.121157 
z
" clip-path="url(#pa48ac6536c)" style="fill: #d55e00"/>
   </g>
   <g id="patch_54">
    <path d="M 34.990625 272.119222 
L 342.964621 272.119222 
L 342.964621 277.951802 
L 34.990625 277.951802 
z
" clip-path="url(#pa48ac6536c)" style="fill: #d55e00"/>
   </g>
   <g id="patch_55">
    <path d="M 34.990625 292.949867 
L 259.392434 292.949867 
L 259.392434 298.782448 
L 34.990625 298.782448 
z
" clip-path="url(#pa48ac6536c)" style="fill: #d55e00"/>
   </g>
   <g id="patch_56">
    <path d="M 34.990625 313.780512 
L 297.537725 313.780512 
L 297.537725 319.613093 
L 34.990625 319.613093 
z
" clip-path="url(#pa48ac6536c)" style="fill: #d55e00"/>
   </g>
   <g id="patch_57">
    <path d="M 34.990625 334.611157 
L 270.961465 334.611157 
L 270.961465 340.443738 
L 34.990625 340.443738 
z
" clip-path="url(#pa48ac6536c)" style="fill: #d55e00"/>
   </g>
   <g id="patch_58">
    <path d="M 34.990625 355.441802 
L 340.673922 355.441802 
L 340.673922 361.274383 
L 34.990625 361.274383 
z
" clip-path="url(#pa48ac6536c)" style="fill: #d55e00"/>
   </g>
   <g id="patch_59">
    <path d="M 34.990625 376.272448 
L 244.584355 376.272448 
L 244.584355 382.105028 
L 34.990625 382.105028 
z
" clip-path="url(#pa48ac6536c)" style="fill: #d55e00"/>
   </g>
   <g id="patch_60">
    <path d="M 34.990625 397.103093 
L 324.863572 397.103093 
L 324.863572 402.935673 
L 34.990625 402.935673 
z
" clip-path="url(#pa48ac6536c)" style="fill: #d55e00"/>
   </g>
   <g id="patch_61">
    <path d="M 34.990625 417.933738 
L 216.108955 417.933738 
L 216.108955 423.766319 
L 34.990625 423.766319 
z
" clip-path="url(#pa48ac6536c)" style="fill: #d55e00"/>
   </g>
   <g id="patch_62">
    <path d="M 34.990625 438.764383 
L 196.673099 438.764383 
L 196.673099 444.596964 
L 34.990625 444.596964 
z
" clip-path="url(#pa48ac6536c)" style="fill: #d55e00"/>
   </g>
   <g id="patch_63">
    <path d="M 34.990625 476.926125 
L 34.990625 22.318125 
" style="fill: none; stroke: #000000; stroke-width: 0.8; stroke-linejoin: miter; stroke-linecap: square"/>
   </g>
   <g id="patch_64">
    <path d="M 34.990625 476.926125 
L 481.390625 476.926125 
" style="fill: none; stroke: #000000; stroke-width: 0.8; stroke-linejoin: miter; stroke-linecap: square"/>
   </g>
   <g id="text_28">
    <text style="font-size: 12px; font-family: 'DejaVu Sans', 'Bitstream Vera Sans', 'Computer Modern Sans Serif', 'Lucida Grande', 'Verdana', 'Geneva', 'Lucid', 'Arial', 'Helvetica', 'Avant Garde', sans-serif; text-anchor: middle" x="258.190625" y="16.318125" transform="rotate(-0 258.190625 16.318125)">FIG-40 — T-021 F1 top n-gramy znakowe</text>
   </g>
   <g id="legend_1">
    <g id="patch_65">
     <path d="M 399.807813 435.522219 
L 419.807813 435.522219 
L 419.807813 428.522219 
L 399.807813 428.522219 
z
" style="fill: #0072b2"/>
    </g>
    <g id="text_29">
     <text style="font-size: 10px; font-family: 'DejaVu Sans', 'Bitstream Vera Sans', 'Computer Modern Sans Serif', 'Lucida Grande', 'Verdana', 'Geneva', 'Lucid', 'Arial', 'Helvetica', 'Avant Garde', sans-serif; text-anchor: start" x="427.807813" y="435.522219" transform="rotate(-0 427.807813 435.522219)">ctrl_train</text>
    </g>
    <g id="patch_66">
     <path d="M 399.807813 450.523 
L 419.807813 450.523 
L 419.807813 443.523 
L 399.807813 443.523 
z
"/>
    </g>
    <g id="text_30">
     <text style="font-size: 10px; font-family: 'DejaVu Sans', 'Bitstream Vera Sans', 'Computer Modern Sans Serif', 'Lucida Grande', 'Verdana', 'Geneva', 'Lucid', 'Arial', 'Helvetica', 'Avant Garde', sans-serif; text-anchor: start" x="427.807813" y="450.523" transform="rotate(-0 427.807813 450.523)">ctrl_test</text>
    </g>
    <g id="patch_67">
     <path d="M 399.807813 465.523781 
L 419.807813 465.523781 
L 419.807813 458.523781 
L 399.807813 458.523781 
z
" style="fill: #d55e00"/>
    </g>
    <g id="text_31">
     <text style="font-size: 10px; font-family: 'DejaVu Sans', 'Bitstream Vera Sans', 'Computer Modern Sans Serif', 'Lucida Grande', 'Verdana', 'Geneva', 'Lucid', 'Arial', 'Helvetica', 'Avant Garde', sans-serif; text-anchor: start" x="427.807813" y="465.523781" transform="rotate(-0 427.807813 465.523781)">quran</text>
    </g>
   </g>
  </g>
 </g>
 <defs>
  <clipPath id="pa48ac6536c">
   <rect x="34.990625" y="22.318125" width="446.4" height="454.608"/>
  </clipPath>
 </defs>
</svg>
